<svg id="Capa_1" enable-background="new 0 0 512 512" height="512" viewBox="0 0 512 512" width="512" xmlns="http://www.w3.org/2000/svg"><g><g><path d="m256 504.5s224.452-64.129 224.452-288.581v-124.587c0-6.964-4.496-13.132-11.126-15.263l-201.06-64.627c-7.976-2.564-16.554-2.564-24.53 0l-201.061 64.627c-6.63 2.131-11.126 8.299-11.126 15.263v124.587c-.001 224.452 224.451 288.581 224.451 288.581z" fill="#eceaec"/><path d="m256 9.52c-4.139 0-8.277.64-12.265 1.922l-201.06 64.627c-6.63 2.131-11.126 8.299-11.126 15.263v124.588c-.001 224.451 224.451 288.58 224.451 288.58z" fill="#dad8db"/><path d="m258.453 41.969c-.794-.255-1.619-.385-2.453-.385s-1.659.129-2.453.385l-189.934 61.05v112.901c0 175.358 153.133 240.929 192.382 254.85.001 0 .004-.001.005-.002.001 0 .004.001.005.002 39.249-13.921 192.382-79.491 192.382-254.85v-112.901z" fill="#a4ccff"/><path d="m424.339 215.919v-83.683c0-6.964-4.496-13.132-11.126-15.263l-157.213-50.533v378.667c48.437-18.92 168.339-80.849 168.339-229.188z" fill="#c3ddff"/><path d="m344.177 336.161h-176.354c-13.282 0-24.048-10.767-24.048-24.048v-112.226c0-13.282 10.767-24.048 24.048-24.048h176.355c13.282 0 24.048 10.767 24.048 24.048v112.226c0 13.282-10.767 24.048-24.049 24.048z" fill="#966a5b"/><path d="m256 288.065v-112.226h-88.177c-13.282 0-24.048 10.767-24.048 24.048v112.226c0 13.282 10.767 24.048 24.048 24.048h176.355c13.282 0 24.048-10.767 24.048-24.048h-88.177c-13.282 0-24.049-10.767-24.049-24.048z" fill="#785353"/><path d="m175.839 175.839v64.129c0 8.854 7.178 16.032 16.032 16.032h128.258c8.854 0 16.032-7.178 16.032-16.032v-64.129z" fill="#d19a6e"/><path d="m336.161 239.968v-8.016h-64.129c-8.854 0-16.032-7.178-16.032-16.032v-40.081h80.161z" fill="#e2a975"/></g><g><path d="m482.747 72.505-224.452-72.145c-1.492-.48-3.098-.48-4.59 0l-224.452 72.145c-3.102.997-5.205 3.882-5.205 7.14v136.275c0 52.495 12.121 100.757 36.027 143.446 19.103 34.112 45.704 64.699 79.065 90.911 56.62 44.487 112.45 60.764 114.799 61.435.673.192 1.367.289 2.061.289s1.387-.096 2.061-.289c2.349-.671 58.179-16.948 114.799-61.435 33.361-26.212 59.963-56.799 79.065-90.911 23.906-42.688 36.027-90.951 36.027-143.446v-136.275c0-3.257-2.103-6.143-5.205-7.14zm-9.795 143.415c0 49.785-11.426 95.49-33.961 135.844-18.063 32.346-43.292 61.413-74.988 86.396-40.917 32.251-82.319 49.373-100.502 55.928v-18.078c21.955-8.285 67.484-28.575 108.515-66.626 24.952-23.139 44.663-49.504 58.587-78.362 16.778-34.773 25.286-73.499 25.286-115.101v-112.902c0-3.258-2.104-6.143-5.205-7.14l-160.35-51.541c-3.941-1.268-8.168.901-9.435 4.845-1.268 3.944.902 8.168 4.845 9.435l155.143 49.868v107.434c0 72.417-26.604 133.807-79.072 182.465-36.117 33.494-75.914 52.57-98.315 61.532v-91.691c0-4.142-3.358-7.5-7.5-7.5s-7.5 3.358-7.5 7.5v125.861c-18.183-6.555-59.585-23.677-100.502-55.928-31.695-24.982-56.924-54.05-74.988-86.396-22.535-40.354-33.961-86.058-33.961-135.844v-130.806l209.451-67.324v17.925l-187.182 60.165c-3.102.997-5.205 3.882-5.205 7.14v112.901c0 146.279 103.099 218.208 164.555 248.064 1.056.513 2.172.755 3.272.755 2.782 0 5.454-1.554 6.751-4.224 1.81-3.726.257-8.213-3.469-10.023-58.302-28.324-156.11-96.462-156.11-234.572v-107.434l177.388-57.017v60.241c0 4.142 3.358 7.5 7.5 7.5s7.5-3.358 7.5-7.5v-93.921l209.452 67.324z"/><path d="m218.597 153.714-7.312 14.625h-43.462c-17.396 0-31.548 14.153-31.548 31.549v112.226c0 17.396 14.152 31.549 31.548 31.549h176.354c17.396 0 31.548-14.153 31.548-31.549v-112.227c0-17.396-14.152-31.549-31.548-31.549h-43.462l-7.312-14.625c-5.378-10.757-16.191-17.439-28.218-17.439h-18.371c-12.026 0-22.839 6.683-28.217 17.44zm110.064 29.625v56.629c0 4.705-3.828 8.532-8.532 8.532h-128.258c-4.705 0-8.532-3.828-8.532-8.532v-56.629zm32.065 16.548v112.226c0 9.125-7.423 16.549-16.548 16.549h-176.355c-9.125 0-16.548-7.424-16.548-16.549v-112.226c0-9.125 7.423-16.549 16.548-16.549h.516v56.629c0 10.354 6.724 19.16 16.032 22.3v9.765c0 4.142 3.358 7.5 7.5 7.5s7.5-3.358 7.5-7.5v-8.532h113.258v8.532c0 4.142 3.358 7.5 7.5 7.5s7.5-3.358 7.5-7.5v-9.765c9.308-3.139 16.032-11.946 16.032-22.3v-56.629h.516c9.125.001 16.549 7.424 16.549 16.549zm-80.739-39.465 3.958 7.917h-55.891l3.958-7.917c2.822-5.643 8.493-9.148 14.802-9.148h18.371c6.309 0 11.981 3.506 14.802 9.148z"/></g></g></svg>